<svg width="124" height="124" viewBox="0 0 124 124" fill="none" xmlns="http://www.w3.org/2000/svg">
<circle cx="61.676" cy="61.676" r="61.676" fill="#0050E5"/>
<path d="M87.5776 41.0195L81.5161 47.0811L87.5776 53.1426L84.1802 56.54L78.1187 50.4785L78.1021 50.4951L74.7046 47.0977L74.7212 47.0811L74.7046 47.0645L78.1021 43.667L78.1187 43.6836L84.1802 37.6221L87.5776 41.0195Z" fill="white"/>
<path d="M35.7703 53.1426L41.8328 47.0801L35.7722 41.0195L39.1697 37.6221L45.2302 43.6826L45.2459 43.667L48.6433 47.0645L48.6277 47.0801L48.6453 47.0977L45.2478 50.4951L45.2302 50.4775L39.1677 56.54L35.7703 53.1426Z" fill="white"/>
<path d="M37.5867 87.7486C38.0526 81.5987 43.4995 69.2991 61.5595 69.2991C79.6195 69.2991 85.2206 81.5987 85.7636 87.7486" stroke="white" stroke-width="6.57877" stroke-linecap="round"/>
</svg>
